<?xml version="1.0" encoding="UTF-8"?>
<svg width="138px" height="81px" viewBox="0 0 138 81" version="1.1" xmlns="http://www.w3.org/2000/svg" xmlns:xlink="http://www.w3.org/1999/xlink">
    <title>Group</title>
    <g id="Page-1" stroke="none" stroke-width="1" fill="none" fill-rule="evenodd">
        <g id="dckayak-logos-2-copy" transform="translate(-246.000000, -161.000000)">
            <g id="Group" transform="translate(248.497790, 163.633000)">
                <path d="M133.00421,33.7718 C133.00421,33.7718 124.81521,49.9918 102.88821,52.0528 C80.80121,54.1288 68.29621,48.1208 65.25621,48.6908 C62.21621,49.2608 42.93121,56.0058 35.14121,59.4258 C27.35121,62.8458 11.39021,66.7498 10.51221,66.6938 C4.71221,66.3228 4.97921,61.5158 1.48721,59.5448 C-1.34479,57.9458 0.738210002,75.7228 0.738210002,75.7228 L133.00421,75.7228 L133.00421,33.7718" id="Fill-33" fill="#34495D"></path>
                <path d="M0.668210002,0.1835 L0.668210002,63.2205 C0.668210002,63.2205 9.91921,69.3735 17.78121,67.3015 C25.64321,65.2295 52.51621,55.7995 52.51621,55.7995 C52.51621,55.7995 74.63521,50.8375 82.40421,51.7905 C90.17221,52.7435 105.65621,53.5305 114.87121,49.5405 C124.08621,45.5505 132.14821,38.1315 132.54121,33.9555 C132.93421,29.7805 132.93421,0.1835 132.93421,0.1835 L0.668210002,0.1835 Z" id="Fill-34" fill="#5EABDD"></path>
                <path d="M106.67481,36.5796 C107.30481,37.6736 106.36581,40.6846 105.58381,41.6886 C104.34681,43.2776 103.14181,44.8826 100.91481,46.8666 C98.89981,48.6616 96.74581,49.8336 95.99881,50.1436 C95.41781,50.3856 90.16981,51.0226 83.78381,51.7316 C72.88881,52.9396 58.67981,54.3536 58.67981,54.3536 L24.18681,65.2086 C24.18681,65.2086 14.91581,63.4676 14.10881,61.4606 C13.30181,59.4536 16.25981,57.4626 18.43681,56.6716 C20.61381,55.8796 34.44081,52.4806 37.08681,52.3806 C39.73281,52.2806 44.79181,52.9946 47.50181,52.1536 C48.79381,51.7526 52.85881,50.4356 57.02981,48.6546 C61.60481,46.7006 66.30781,44.2776 67.67081,43.9936 C67.67081,43.9936 71.86081,43.1236 74.62381,42.6156 C77.38681,42.1066 86.24281,41.2176 88.20881,40.8336 C90.17481,40.4506 102.96781,36.9326 104.40281,36.5176 C105.90281,36.0836 106.39081,36.0876 106.67481,36.5796" id="Fill-35" fill="#FEFEFE"></path>
                <path d="M106.67481,36.5796 C107.30481,37.6736 106.36581,40.6846 105.58381,41.6886 C104.34681,43.2776 103.14181,44.8826 100.91481,46.8666 C98.89981,48.6616 96.74581,49.8336 95.99881,50.1436 C95.80681,50.2236 90.99681,52.5976 90.14581,52.7046 C85.16681,53.3326 71.27281,53.4316 63.20181,54.0886 C61.33981,54.2396 59.21381,54.6426 58.23181,54.8366 C53.40581,55.7886 24.18681,65.2086 24.18681,65.2086 C24.18681,65.2086 14.91581,63.4676 14.10881,61.4606 C13.30181,59.4536 16.25981,57.4626 18.43681,56.6716 C20.61381,55.8796 34.44081,52.4806 37.08681,52.3806 C39.73281,52.2806 44.79181,52.9946 47.50181,52.1536 C48.79381,51.7526 52.85881,50.4356 57.02981,48.6546 C61.60481,46.7006 66.30781,44.2776 67.67081,43.9936 C67.67081,43.9936 71.86081,43.1236 74.62381,42.6156 C77.38681,42.1066 86.24281,41.2176 88.20881,40.8336 C90.17481,40.4506 102.96781,36.9326 104.40281,36.5176 C105.90281,36.0836 106.39081,36.0876 106.67481,36.5796" id="Fill-36" fill="#FEFEFE"></path>
                <path d="M45.61471,52.2279 C44.73171,52.2739 44.16771,52.6109 43.74871,50.9989 C43.32971,49.3869 42.44271,43.7789 42.53771,43.1619 C42.63271,42.5439 42.67971,39.8199 43.65371,38.5809 C44.62771,37.3429 44.42271,37.3929 45.45971,36.4639 C46.49671,35.5349 47.09771,35.6799 47.50171,34.9439 C47.90471,34.2079 48.45171,32.1649 47.92871,31.4049 C47.40671,30.6449 47.19071,29.5189 47.26371,29.0779 C47.33471,28.6529 48.01271,27.1129 48.71271,26.4179 C49.20271,25.9319 50.10671,25.1579 51.63371,25.1829 C53.16171,25.2079 54.57271,25.9079 55.00671,26.6549 C55.43971,27.4019 56.07571,28.4439 56.97771,28.9119 C57.87971,29.3789 58.33971,29.3869 58.49771,29.4099 C58.69071,29.4389 57.09671,30.1939 56.66871,30.2889 C56.24171,30.3839 55.76671,30.3839 55.67171,30.7639 C55.57671,31.1439 55.39571,31.9839 55.59971,32.3789 C55.80471,32.7749 56.00371,33.6379 55.69471,33.7569 C55.38671,33.8749 54.88771,33.8749 54.83971,34.2549 C54.79271,34.6349 54.49371,35.3579 54.67371,35.7749 C54.85471,36.1919 54.93471,36.0369 55.83771,35.8939 C56.73971,35.7519 57.80871,35.7039 58.33171,35.5139 C58.85371,35.3239 61.38771,34.5789 61.77071,34.3979 C64.83471,32.9499 66.54271,31.8429 67.20371,31.4769 C67.61971,31.2459 68.32971,30.9069 68.63871,30.2649 C68.77671,29.9789 68.95771,29.6259 69.09471,29.2479 C69.26471,28.7779 69.36771,28.2689 69.23471,27.7949 C68.99471,26.9399 65.78871,13.4739 65.78871,13.2129 C65.78871,12.9519 65.70071,11.1179 65.79871,10.4259 C65.89671,9.7329 66.02871,8.3919 66.30071,8.2489 C66.57271,8.1069 66.83371,8.0349 66.99971,8.4389 C67.16671,8.8429 68.13971,11.6689 68.11671,12.1199 C68.09271,12.5719 68.57771,15.1489 68.54871,15.8549 C68.51971,16.5619 68.79271,19.7559 68.84671,20.2959 C68.89971,20.8369 69.80471,25.4589 70.03971,26.2989 C70.31071,27.2649 71.05671,29.0779 71.40671,29.9919 C71.58671,30.4589 71.85771,31.7619 71.70871,32.0939 C71.55771,32.4259 71.20371,32.6829 70.63371,32.7809 C70.06371,32.8779 68.83671,32.6399 68.45271,32.9249 C68.06871,33.2099 63.82771,36.8369 63.19771,37.1569 C61.80971,37.8609 61.31771,38.0929 60.52871,38.3309 C59.73971,38.5679 57.91271,39.2349 57.63671,39.4719 C57.38471,39.6889 58.28371,40.6199 58.54471,41.0239 C58.80671,41.4279 60.82571,44.6389 61.01471,45.0759 C61.18971,45.4789 61.48771,46.3919 61.48771,46.3919 C61.48771,46.3919 54.43971,50.0849 52.03771,50.9239 C50.41671,51.4899 47.45771,52.1309 45.61471,52.2279" id="Fill-37" fill="#FEFEFE"></path>
                <path d="M45.61471,52.2279 C44.73171,52.2739 44.16771,52.6109 43.74871,50.9989 C43.32971,49.3869 42.44271,43.7789 42.53771,43.1619 C42.63271,42.5439 42.67971,39.8199 43.65371,38.5809 C44.62771,37.3429 44.42271,37.3929 45.45971,36.4639 C46.49671,35.5349 47.09771,35.6799 47.50171,34.9439 C47.90471,34.2079 48.45171,32.1649 47.92871,31.4049 C47.40671,30.6449 47.19071,29.5189 47.26371,29.0779 C47.33471,28.6529 48.01271,27.1129 48.71271,26.4179 C49.20271,25.9319 50.10671,25.1579 51.63371,25.1829 C53.16171,25.2079 54.57271,25.9079 55.00671,26.6549 C55.43971,27.4019 56.07571,28.4439 56.97771,28.9119 C57.87971,29.3789 58.33971,29.3869 58.49771,29.4099 C58.69071,29.4389 57.09671,30.1939 56.66871,30.2889 C56.24171,30.3839 55.76671,30.3839 55.67171,30.7639 C55.57671,31.1439 55.39571,31.9839 55.59971,32.3789 C55.80471,32.7749 56.00371,33.6379 55.69471,33.7569 C55.38671,33.8749 54.88771,33.8749 54.83971,34.2549 C54.79271,34.6349 54.49371,35.3579 54.67371,35.7749 C54.85471,36.1919 54.93471,36.0369 55.83771,35.8939 C56.73971,35.7519 57.80871,35.7039 58.33171,35.5139 C58.85371,35.3239 61.38771,34.5789 61.77071,34.3979 C64.83471,32.9499 66.54271,31.8429 67.20371,31.4769 C67.61971,31.2459 68.32971,30.9069 68.63871,30.2649 C68.77671,29.9789 68.95771,29.6259 69.09471,29.2479 C69.26471,28.7779 69.36771,28.2689 69.23471,27.7949 C68.99471,26.9399 65.78871,13.4739 65.78871,13.2129 C65.78871,12.9519 65.70071,11.1179 65.79871,10.4259 C65.89671,9.7329 66.02871,8.3919 66.30071,8.2489 C66.57271,8.1069 66.83371,8.0349 66.99971,8.4389 C67.16671,8.8429 68.13971,11.6689 68.11671,12.1199 C68.09271,12.5719 68.57771,15.1489 68.54871,15.8549 C68.51971,16.5619 68.79271,19.7559 68.84671,20.2959 C68.89971,20.8369 69.80471,25.4589 70.03971,26.2989 C70.31071,27.2649 71.05671,29.0779 71.40671,29.9919 C71.58671,30.4589 71.85771,31.7619 71.70871,32.0939 C71.55771,32.4259 71.20371,32.6829 70.63371,32.7809 C70.06371,32.8779 68.83671,32.6399 68.45271,32.9249 C68.06871,33.2099 63.82771,36.8369 63.19771,37.1569 C61.80971,37.8609 61.31771,38.0929 60.52871,38.3309 C59.73971,38.5679 57.91271,39.2349 57.63671,39.4719 C57.38471,39.6889 58.28371,40.6199 58.54471,41.0239 C58.80671,41.4279 60.82571,44.6389 61.01471,45.0759 C61.18971,45.4789 61.48771,46.3919 61.48771,46.3919 C61.48771,46.3919 54.43971,50.0849 52.03771,50.9239 C50.41671,51.4899 47.45771,52.1309 45.61471,52.2279 Z" id="Stroke-38" stroke="#FEFEFE" stroke-width="0.57"></path>
                <path d="M53.29861,40.6747 C53.29861,40.6747 52.64461,41.9467 52.18061,42.3297 C51.63361,42.7817 50.04161,43.9387 48.50061,44.1197 C46.95861,44.3017 45.71461,44.7977 45.04861,43.8337" id="Stroke-39" stroke="#FEFEFE" stroke-width="0.57"></path>
                <path d="M45.45971,36.4639 C45.45971,36.4639 44.27171,39.2809 44.27171,39.8549 C44.27171,40.4299 44.36171,42.1229 44.69671,42.9509 C45.03171,43.7789 44.95271,43.7179 45.14271,43.9539" id="Stroke-40" stroke="#FEFEFE" stroke-width="0.57"></path>
                <path d="M51.94261,42.3065 C51.94261,42.3065 51.65761,41.0235 51.94261,40.1455 C52.22761,39.2665 52.74961,38.2455 52.72661,37.4135 C52.70261,36.5825 53.20761,36.1775 52.85061,36.2005 C52.49361,36.2245 50.94561,35.9655 50.27961,35.7045 C49.61561,35.4425 49.16361,35.2525 48.47561,35.4185 C47.78661,35.5855 46.88061,35.5345 46.40561,35.7955" id="Stroke-41" stroke="#FEFEFE" stroke-width="0.57"></path>
                <line x1="55.03191" y1="36.0251" x2="52.72591" y2="36.2261" id="Stroke-42" stroke="#FEFEFE" stroke-width="0.57"></line>
                <path d="M57.63711,39.4722 C55.04311,40.2792 55.29911,40.2032 54.34711,40.4262 C53.43511,40.6402 52.03711,40.9772 52.03711,40.9772" id="Stroke-43" stroke="#FEFEFE" stroke-width="0.57"></path>
                <path d="M56.51261,30.3199 C56.51261,30.3199 54.36561,29.5049 53.53361,29.5999 C52.70261,29.6949 51.23061,29.8179 50.49361,30.1719 C49.75761,30.5259 48.39161,31.0249 47.77461,31.0489" id="Stroke-44" stroke="#FEFEFE" stroke-width="0.57"></path>
                <polygon id="Fill-45" fill="#FEFEFE" points="74.03011 42.5734 71.67211 32.3334 70.55011 32.6524 70.55011 32.9494 72.86611 42.8054"></polygon>
                <polygon id="Stroke-46" stroke="#FEFEFE" stroke-width="0.57" points="74.03011 42.5734 71.67211 32.3334 70.55011 32.6524 70.55011 32.9494 72.86611 42.8054"></polygon>
                <path d="M70.98601,28.9167 C70.79901,28.5137 70.24501,28.4087 70.01301,28.4827 C69.76101,28.5627 69.20201,28.9067 69.09501,29.2477" id="Stroke-47" stroke="#FEFEFE" stroke-width="0.57"></path>
                <polygon id="Stroke-48" stroke="#FEFEFE" stroke-width="4.553" points="0.738210002 75.723 133.00421 75.723 133.00421 0 0.738210002 0"></polygon>
            </g>
        </g>
    </g>
</svg>